<svg width="480" height="480" viewBox="0 0 480 480" fill="none" xmlns="http://www.w3.org/2000/svg">
<rect width="480" height="480" rx="24" fill="#232222"/>
<path d="M181 122C198.673 122 213 136.327 213 154C213 159.09 211.809 163.901 209.695 168.173L274.3 218.648C280.169 211.745 288.918 207.364 298.689 207.364C316.362 207.365 330.689 221.691 330.689 239.364C330.689 257.037 316.362 271.364 298.689 271.364C290.763 271.364 283.51 268.48 277.921 263.707L211.1 315.913C212.329 319.311 213 322.977 213 326.8C213 344.473 198.673 358.8 181 358.8C163.327 358.8 149 344.473 149 326.8C149 309.127 163.327 294.8 181 294.8C188.478 294.8 195.358 297.365 200.806 301.664L268.177 249.028C267.212 245.979 266.689 242.733 266.689 239.364C266.689 237.9 266.789 236.459 266.979 235.047C266.482 234.77 265.998 234.454 265.537 234.094L197.847 181.208C192.953 184.244 187.182 186 181 186C163.327 186 149 171.673 149 154C149 136.327 163.327 122 181 122Z" fill="url(#paint0_linear_135_27)"/>
<defs>
<linearGradient id="paint0_linear_135_27" x1="279.094" y1="233.54" x2="195.437" y2="159.395" gradientUnits="userSpaceOnUse">
<stop stop-color="#6A994E"/>
<stop offset="1" stop-color="#E5EDE0"/>
</linearGradient>
</defs>
</svg>
