<svg width="2222" height="794" viewBox="0 0 2222 794" fill="none" xmlns="http://www.w3.org/2000/svg">
<rect width="2222" height="794" fill="white"/>
<path d="M804.72 411.68C804.72 396.56 807.613 384.24 813.4 374.72C819.187 365.2 826.653 358.107 835.8 353.44C844.947 348.773 854.56 346.44 864.64 346.44V371.64C856.24 371.64 848.213 372.947 840.56 375.56C833.093 377.987 826.933 382.093 822.08 387.88C817.413 393.48 815.08 401.133 815.08 410.84L804.72 411.68ZM788.48 487V347H815.08V487H788.48ZM947.977 490.36C934.351 490.36 922.311 487.28 911.857 481.12C901.404 474.773 893.191 466.093 887.217 455.08C881.244 444.067 878.257 431.373 878.257 417C878.257 402.627 881.244 389.933 887.217 378.92C893.191 367.907 901.404 359.32 911.857 353.16C922.497 346.813 934.631 343.64 948.257 343.64C961.137 343.64 972.431 346.907 982.137 353.44C991.844 359.787 999.404 368.933 1004.82 380.88C1010.42 392.64 1013.22 406.547 1013.22 422.6H900.097L905.137 418.4C905.137 428.293 907.097 436.88 911.017 444.16C914.937 451.44 920.257 457.04 926.977 460.96C933.697 464.693 941.351 466.56 949.937 466.56C959.271 466.56 967.017 464.413 973.177 460.12C979.524 455.64 984.471 450.04 988.017 443.32L1010.98 453.96C1007.24 461.24 1002.39 467.68 996.417 473.28C990.444 478.693 983.351 482.893 975.137 485.88C967.111 488.867 958.057 490.36 947.977 490.36ZM906.817 405.8L901.497 401.6H989.977L984.937 405.8C984.937 397.587 983.257 390.587 979.897 384.8C976.537 378.827 972.057 374.347 966.457 371.36C960.857 368.187 954.604 366.6 947.697 366.6C940.977 366.6 934.444 368.187 928.097 371.36C921.937 374.347 916.804 378.733 912.697 384.52C908.777 390.307 906.817 397.4 906.817 405.8ZM1125.46 487L1124.34 462.64V413.92C1124.34 403.653 1123.12 395.067 1120.7 388.16C1118.46 381.253 1114.91 376.027 1110.06 372.48C1105.39 368.933 1099.14 367.16 1091.3 367.16C1084.02 367.16 1077.67 368.653 1072.26 371.64C1067.03 374.627 1062.64 379.293 1059.1 385.64L1035.58 376.68C1038.94 370.333 1043.14 364.733 1048.18 359.88C1053.22 354.84 1059.28 350.92 1066.38 348.12C1073.47 345.133 1081.78 343.64 1091.3 343.64C1104.55 343.64 1115.56 346.253 1124.34 351.48C1133.11 356.707 1139.64 364.267 1143.94 374.16C1148.42 384.053 1150.56 396.28 1150.38 410.84L1150.1 487H1125.46ZM1084.3 490.36C1067.68 490.36 1054.71 486.627 1045.38 479.16C1036.23 471.507 1031.66 460.96 1031.66 447.52C1031.66 433.147 1036.42 422.227 1045.94 414.76C1055.64 407.107 1069.08 403.28 1086.26 403.28H1125.18V424.28H1093.54C1080.66 424.28 1071.6 426.333 1066.38 430.44C1061.15 434.36 1058.54 439.867 1058.54 446.96C1058.54 453.493 1060.96 458.627 1065.82 462.36C1070.86 465.907 1077.76 467.68 1086.54 467.68C1094.19 467.68 1100.82 466.093 1106.42 462.92C1112.02 459.56 1116.4 454.893 1119.58 448.92C1122.75 442.947 1124.34 436.133 1124.34 428.48H1133.58C1133.58 447.52 1129.47 462.64 1121.26 473.84C1113.23 484.853 1100.91 490.36 1084.3 490.36ZM1286.35 487L1285.23 460.96V291H1311.55V487H1286.35ZM1239.31 490.36C1226.62 490.36 1215.51 487.28 1205.99 481.12C1196.66 474.96 1189.28 466.373 1183.87 455.36C1178.64 444.347 1176.03 431.56 1176.03 417C1176.03 402.253 1178.64 389.467 1183.87 378.64C1189.28 367.627 1196.66 359.04 1205.99 352.88C1215.51 346.72 1226.62 343.64 1239.31 343.64C1251.07 343.64 1261.24 346.72 1269.83 352.88C1278.6 359.04 1285.32 367.627 1289.99 378.64C1294.66 389.467 1296.99 402.253 1296.99 417C1296.99 431.56 1294.66 444.347 1289.99 455.36C1285.32 466.373 1278.6 474.96 1269.83 481.12C1261.24 487.28 1251.07 490.36 1239.31 490.36ZM1245.47 466.28C1253.31 466.28 1260.22 464.227 1266.19 460.12C1272.16 455.827 1276.83 450.04 1280.19 442.76C1283.55 435.293 1285.23 426.707 1285.23 417C1285.23 407.293 1283.55 398.8 1280.19 391.52C1276.83 384.053 1272.16 378.267 1266.19 374.16C1260.22 369.867 1253.22 367.72 1245.19 367.72C1236.98 367.72 1229.7 369.867 1223.35 374.16C1217 378.267 1212.06 384.053 1208.51 391.52C1204.96 398.8 1203.19 407.293 1203.19 417C1203.19 426.707 1204.96 435.293 1208.51 442.76C1212.24 450.04 1217.28 455.827 1223.63 460.12C1229.98 464.227 1237.26 466.28 1245.47 466.28ZM1398.6 490.36C1388.71 490.36 1379.84 488.867 1372 485.88C1364.35 482.893 1357.81 478.88 1352.4 473.84C1347.17 468.8 1343.25 463.107 1340.64 456.76L1363.6 446.68C1366.59 452.467 1371.07 457.227 1377.04 460.96C1383.01 464.693 1389.64 466.56 1396.92 466.56C1404.95 466.56 1411.57 465.067 1416.8 462.08C1422.03 459.093 1424.64 454.893 1424.64 449.48C1424.64 444.253 1422.68 440.147 1418.76 437.16C1414.84 434.173 1409.15 431.747 1401.68 429.88L1388.52 426.52C1375.45 422.973 1365.28 417.653 1358 410.56C1350.91 403.467 1347.36 395.44 1347.36 386.48C1347.36 372.853 1351.75 362.307 1360.52 354.84C1369.29 347.373 1382.27 343.64 1399.44 343.64C1407.84 343.64 1415.49 344.853 1422.4 347.28C1429.49 349.707 1435.47 353.16 1440.32 357.64C1445.36 362.12 1448.91 367.44 1450.96 373.6L1428.56 383.68C1426.32 378.08 1422.49 373.973 1417.08 371.36C1411.67 368.56 1405.32 367.16 1398.04 367.16C1390.57 367.16 1384.69 368.84 1380.4 372.2C1376.11 375.373 1373.96 379.853 1373.96 385.64C1373.96 388.813 1375.73 391.893 1379.28 394.88C1383.01 397.68 1388.43 400.013 1395.52 401.88L1410.64 405.52C1419.79 407.76 1427.35 411.213 1433.32 415.88C1439.29 420.36 1443.77 425.493 1446.76 431.28C1449.75 436.88 1451.24 442.76 1451.24 448.92C1451.24 457.32 1448.91 464.693 1444.24 471.04C1439.76 477.2 1433.51 481.96 1425.48 485.32C1417.64 488.68 1408.68 490.36 1398.6 490.36ZM1480.31 543V347H1505.23L1506.91 372.76V543H1480.31ZM1552.83 490.36C1541.07 490.36 1530.8 487.28 1522.03 481.12C1513.44 474.96 1506.82 466.373 1502.15 455.36C1497.48 444.347 1495.15 431.56 1495.15 417C1495.15 402.253 1497.48 389.467 1502.15 378.64C1506.82 367.627 1513.44 359.04 1522.03 352.88C1530.8 346.72 1541.07 343.64 1552.83 343.64C1565.34 343.64 1576.35 346.72 1585.87 352.88C1595.39 359.04 1602.76 367.627 1607.99 378.64C1613.4 389.467 1616.11 402.253 1616.11 417C1616.11 431.56 1613.4 444.347 1607.99 455.36C1602.76 466.373 1595.39 474.96 1585.87 481.12C1576.35 487.28 1565.34 490.36 1552.83 490.36ZM1546.39 466.28C1554.79 466.28 1562.16 464.227 1568.51 460.12C1574.86 455.827 1579.8 450.04 1583.35 442.76C1587.08 435.293 1588.95 426.707 1588.95 417C1588.95 407.293 1587.18 398.8 1583.63 391.52C1580.08 384.053 1575.14 378.267 1568.79 374.16C1562.44 369.867 1555.07 367.72 1546.67 367.72C1539.02 367.72 1532.11 369.867 1525.95 374.16C1519.98 378.267 1515.31 384.053 1511.95 391.52C1508.59 398.987 1506.91 407.48 1506.91 417C1506.91 426.707 1508.59 435.293 1511.95 442.76C1515.31 450.04 1519.98 455.827 1525.95 460.12C1531.92 464.227 1538.74 466.28 1546.39 466.28ZM1731.12 487L1730 462.64V413.92C1730 403.653 1728.79 395.067 1726.36 388.16C1724.12 381.253 1720.57 376.027 1715.72 372.48C1711.05 368.933 1704.8 367.16 1696.96 367.16C1689.68 367.16 1683.33 368.653 1677.92 371.64C1672.69 374.627 1668.31 379.293 1664.76 385.64L1641.24 376.68C1644.6 370.333 1648.8 364.733 1653.84 359.88C1658.88 354.84 1664.95 350.92 1672.04 348.12C1679.13 345.133 1687.44 343.64 1696.96 343.64C1710.21 343.64 1721.23 346.253 1730 351.48C1738.77 356.707 1745.31 364.267 1749.6 374.16C1754.08 384.053 1756.23 396.28 1756.04 410.84L1755.76 487H1731.12ZM1689.96 490.36C1673.35 490.36 1660.37 486.627 1651.04 479.16C1641.89 471.507 1637.32 460.96 1637.32 447.52C1637.32 433.147 1642.08 422.227 1651.6 414.76C1661.31 407.107 1674.75 403.28 1691.92 403.28H1730.84V424.28H1699.2C1686.32 424.28 1677.27 426.333 1672.04 430.44C1666.81 434.36 1664.2 439.867 1664.2 446.96C1664.2 453.493 1666.63 458.627 1671.48 462.36C1676.52 465.907 1683.43 467.68 1692.2 467.68C1699.85 467.68 1706.48 466.093 1712.08 462.92C1717.68 459.56 1722.07 454.893 1725.24 448.92C1728.41 442.947 1730 436.133 1730 428.48H1739.24C1739.24 447.52 1735.13 462.64 1726.92 473.84C1718.89 484.853 1706.57 490.36 1689.96 490.36ZM1853.37 490.36C1839.37 490.36 1826.96 487.28 1816.13 481.12C1805.31 474.773 1796.81 466.093 1790.65 455.08C1784.68 444.067 1781.69 431.373 1781.69 417C1781.69 402.627 1784.68 389.933 1790.65 378.92C1796.81 367.907 1805.21 359.32 1815.85 353.16C1826.68 346.813 1839 343.64 1852.81 343.64C1866.44 343.64 1878.67 346.813 1889.49 353.16C1900.51 359.507 1908.72 368.56 1914.13 380.32L1890.05 390.4C1886.51 383.493 1881.37 378.08 1874.65 374.16C1868.12 370.24 1860.56 368.28 1851.97 368.28C1843.57 368.28 1836.11 370.333 1829.57 374.44C1823.04 378.547 1817.91 384.333 1814.17 391.8C1810.44 399.08 1808.57 407.48 1808.57 417C1808.57 426.52 1810.44 434.92 1814.17 442.2C1817.91 449.48 1823.13 455.267 1829.85 459.56C1836.57 463.667 1844.13 465.72 1852.53 465.72C1861.12 465.72 1868.77 463.573 1875.49 459.28C1882.21 454.8 1887.25 448.827 1890.61 441.36L1914.97 451.16C1909.56 463.48 1901.35 473.093 1890.33 480C1879.51 486.907 1867.19 490.36 1853.37 490.36ZM2003.17 490.36C1989.55 490.36 1977.51 487.28 1967.05 481.12C1956.6 474.773 1948.39 466.093 1942.41 455.08C1936.44 444.067 1933.45 431.373 1933.45 417C1933.45 402.627 1936.44 389.933 1942.41 378.92C1948.39 367.907 1956.6 359.32 1967.05 353.16C1977.69 346.813 1989.83 343.64 2003.45 343.64C2016.33 343.64 2027.63 346.907 2037.33 353.44C2047.04 359.787 2054.6 368.933 2060.01 380.88C2065.61 392.64 2068.41 406.547 2068.41 422.6H1955.29L1960.33 418.4C1960.33 428.293 1962.29 436.88 1966.21 444.16C1970.13 451.44 1975.45 457.04 1982.17 460.96C1988.89 464.693 1996.55 466.56 2005.13 466.56C2014.47 466.56 2022.21 464.413 2028.37 460.12C2034.72 455.64 2039.67 450.04 2043.21 443.32L2066.17 453.96C2062.44 461.24 2057.59 467.68 2051.61 473.28C2045.64 478.693 2038.55 482.893 2030.33 485.88C2022.31 488.867 2013.25 490.36 2003.17 490.36ZM1962.01 405.8L1956.69 401.6H2045.17L2040.13 405.8C2040.13 397.587 2038.45 390.587 2035.09 384.8C2031.73 378.827 2027.25 374.347 2021.65 371.36C2016.05 368.187 2009.8 366.6 2002.89 366.6C1996.17 366.6 1989.64 368.187 1983.29 371.36C1977.13 374.347 1972 378.733 1967.89 384.52C1963.97 390.307 1962.01 397.4 1962.01 405.8Z" fill="black"/>
<rect x="140" y="157" width="480" height="480" rx="24" fill="#232222"/>
<path d="M321 279C338.673 279 353 293.327 353 311C353 316.09 351.809 320.901 349.695 325.173L414.3 375.648C420.169 368.745 428.918 364.364 438.689 364.364C456.362 364.365 470.689 378.691 470.689 396.364C470.689 414.037 456.362 428.364 438.689 428.364C430.763 428.364 423.51 425.48 417.921 420.707L351.1 472.913C352.329 476.311 353 479.977 353 483.8C353 501.473 338.673 515.8 321 515.8C303.327 515.8 289 501.473 289 483.8C289 466.127 303.327 451.8 321 451.8C328.478 451.8 335.358 454.365 340.806 458.664L408.177 406.028C407.212 402.979 406.689 399.733 406.689 396.364C406.689 394.9 406.789 393.459 406.979 392.047C406.482 391.77 405.998 391.454 405.537 391.094L337.847 338.208C332.953 341.244 327.182 343 321 343C303.327 343 289 328.673 289 311C289 293.327 303.327 279 321 279Z" fill="url(#paint0_linear_15_2)"/>
<defs>
<linearGradient id="paint0_linear_15_2" x1="419.094" y1="390.54" x2="335.437" y2="316.395" gradientUnits="userSpaceOnUse">
<stop stop-color="#6A994E"/>
<stop offset="1" stop-color="#E5EDE0"/>
</linearGradient>
</defs>
</svg>
